<?xml version="1.0" standalone="no"?>
<!DOCTYPE svg PUBLIC "-//W3C//DTD SVG 20010904//EN"
 "http://www.w3.org/TR/2001/REC-SVG-20010904/DTD/svg10.dtd">
<svg version="1.0" xmlns="http://www.w3.org/2000/svg"
 width="512.000000pt" height="512.000000pt" viewBox="0 0 512.000000 512.000000"
 preserveAspectRatio="xMidYMid meet">
<metadata>
Created by potrace 1.16, written by Peter Selinger 2001-2019
</metadata>
<g transform="translate(0.000000,512.000000) scale(0.100000,-0.100000)"
fill="#02e4a1" stroke="none">
<path d="M2491 4244 c-363 -15 -352 -11 -384 -110 -11 -32 -20 -60 -21 -61 0
0 -18 -4 -38 -8 -37 -7 -38 -7 -38 23 0 17 -4 34 -10 37 -5 3 -129 3 -276 -1
-208 -6 -269 -10 -280 -21 -9 -10 -14 -37 -14 -78 0 -73 13 -88 78 -85 57 3
62 1 62 -17 0 -36 -53 -52 -190 -59 -115 -6 -132 -5 -149 10 -17 15 -35 17
-153 11 -73 -4 -150 -11 -171 -17 -45 -11 -119 -75 -137 -119 -9 -20 -26 -35
-51 -46 -21 -8 -52 -30 -68 -48 -49 -57 -53 -101 -41 -486 5 -189 10 -354 10
-365 0 -16 -11 -26 -44 -38 -54 -21 -93 -58 -117 -111 -15 -33 -19 -65 -19
-180 1 -254 16 -479 38 -527 23 -52 65 -90 126 -113 54 -21 53 -16 70 -282 12
-188 15 -204 40 -246 36 -63 77 -88 176 -113 80 -19 85 -22 91 -51 14 -69 71
-131 141 -155 18 -6 42 -21 53 -33 19 -20 35 -22 175 -28 241 -11 277 -9 308
11 26 18 44 18 452 6 234 -6 474 -15 534 -18 117 -6 156 -20 156 -57 0 -70 35
-79 311 -79 276 0 274 -1 243 103 -5 17 -3 16 33 -3 29 -16 56 -20 123 -20 83
0 86 -1 102 -27 8 -16 19 -46 22 -67 13 -69 50 -85 196 -86 266 0 523 69 634
171 91 83 106 166 39 219 -38 30 -44 25 -20 -19 19 -34 20 -43 9 -80 -18 -58
-71 -107 -166 -152 -141 -67 -319 -99 -558 -99 -116 0 -115 -1 -120 55 -3 28
-1 30 35 33 32 3 37 7 37 28 0 19 5 24 25 24 18 0 25 -5 25 -20 0 -26 21 -34
66 -25 25 4 38 13 42 27 4 18 10 20 58 14 30 -3 73 -2 96 3 24 6 103 19 176
30 73 11 141 25 152 31 11 6 31 26 46 46 27 35 28 42 35 202 5 107 4 173 -3
185 -5 11 -9 82 -9 162 2 122 -1 145 -15 160 -16 15 -17 40 -11 273 5 185 10
258 19 261 7 2 22 14 35 27 22 22 23 30 23 157 0 120 -2 137 -20 160 -11 14
-29 29 -40 32 -14 4 -20 15 -20 34 0 25 5 30 44 40 73 18 127 92 152 209 34
165 0 354 -81 450 l-36 41 3 108 3 108 18 -40 c38 -86 41 -90 77 -90 l35 0 3
80 c6 153 -27 195 -153 195 l-70 1 -36 62 c-43 74 -116 137 -193 166 -84 31
-193 40 -601 46 -203 4 -380 8 -392 11 -14 3 -30 24 -51 68 -17 35 -40 70 -53
76 -12 7 -51 15 -85 18 -55 4 -63 7 -68 28 -10 37 -34 54 -74 53 -20 -1 -178
-8 -351 -15z m367 -56 c5 -24 -6 -25 -306 -38 -144 -6 -269 -13 -277 -16 -14
-6 -29 -34 -21 -41 2 -2 123 1 268 8 144 7 319 13 388 13 l125 1 47 -95 c26
-52 47 -102 47 -110 0 -22 -36 24 -66 85 -44 87 -40 85 -177 83 l-121 -2 125
-6 125 -5 41 -78 c22 -43 52 -90 67 -104 30 -30 -7 -28 577 -42 305 -7 328 -9
367 -29 53 -27 89 -74 102 -132 6 -28 8 -156 5 -330 -3 -157 -9 -573 -14 -925
-11 -677 -34 -1336 -50 -1396 -6 -22 -26 -51 -50 -73 l-40 -36 -274 0 c-150 0
-288 3 -305 6 -24 5 -37 16 -52 45 -33 65 -51 71 -232 80 -536 27 -924 42
-1727 65 -118 3 -232 10 -252 15 -22 6 -52 25 -73 47 -30 32 -35 34 -35 16 0
-12 9 -33 20 -46 41 -53 69 -57 513 -73 609 -22 896 -34 1142 -50 121 -8 290
-17 375 -21 155 -7 201 -17 213 -48 4 -9 -2 -16 -15 -19 -18 -5 -20 -11 -14
-51 l7 -46 -93 1 c-51 1 -151 4 -222 8 l-129 6 -11 39 c-6 22 -23 48 -39 60
-32 24 -93 27 -732 45 -562 16 -895 31 -935 41 -45 12 -95 63 -113 115 -8 23
-17 107 -21 202 -8 179 -14 163 62 178 54 11 56 23 43 284 -7 130 -14 243 -16
251 -3 8 -3 -94 0 -227 4 -260 1 -278 -46 -271 l-24 3 -7 170 c-13 342 -40
1617 -35 1651 7 43 48 99 85 118 38 19 270 31 304 16 42 -19 48 -49 49 -228 1
-92 5 -214 9 -272 5 -79 7 -30 8 191 2 289 1 297 -19 323 l-22 28 -161 -4
c-180 -3 -197 -9 -254 -87 l-27 -36 -147 -4 -148 -3 0 56 c0 59 18 117 41 132
8 5 67 11 131 14 106 5 119 7 142 29 14 14 26 28 26 33 0 12 -35 10 -65 -4
-31 -14 -47 -1 -21 18 22 16 93 19 115 5 12 -7 10 -14 -7 -36 -47 -59 -65 -67
-165 -67 -50 0 -104 -2 -120 -5 -34 -6 -54 -38 -36 -59 10 -13 35 -15 131 -12
l119 3 82 85 82 84 262 10 c238 8 263 8 278 -7 15 -15 53 -17 356 -17 186 0
339 4 339 8 0 29 -29 32 -337 32 l-313 0 6 26 7 27 -184 -7 c-101 -4 -246 -11
-322 -16 -111 -7 -146 -5 -173 6 -68 28 -140 11 -187 -46 -15 -18 -30 -30 -34
-27 -13 13 40 77 80 96 39 19 61 21 257 21 117 -1 276 2 352 6 l140 7 37 51
c21 28 44 56 52 62 8 7 83 14 184 17 166 6 170 6 192 31 12 14 32 58 45 97 15
48 30 75 43 81 18 8 560 38 625 34 15 0 26 -8 28 -18z m-1081 -120 c-3 -8 -6
-5 -6 6 -1 11 2 17 5 13 3 -3 4 -12 1 -19z m40 0 c-3 -8 -6 -5 -6 6 -1 11 2
17 5 13 3 -3 4 -12 1 -19z m53 7 c0 -8 -4 -15 -10 -15 -5 0 -10 7 -10 15 0 8
5 15 10 15 6 0 10 -7 10 -15z m27 -7 c-3 -8 -6 -5 -6 6 -1 11 2 17 5 13 3 -3
4 -12 1 -19z m30 0 c-3 -8 -6 -5 -6 6 -1 11 2 17 5 13 3 -3 4 -12 1 -19z m43
13 c0 -6 -4 -13 -10 -16 -5 -3 -10 1 -10 9 0 9 5 16 10 16 6 0 10 -4 10 -9z
m-490 -45 c0 -25 -4 -48 -10 -51 -6 -4 -10 13 -10 44 0 28 5 51 10 51 6 0 10
-20 10 -44z m27 -23 c-2 -16 -4 -5 -4 22 0 28 2 40 4 28 2 -13 2 -35 0 -50z
m53 22 c0 -25 -4 -45 -10 -45 -5 0 -10 20 -10 45 0 25 5 45 10 45 6 0 10 -20
10 -45z m27 -22 c-2 -16 -4 -5 -4 22 0 28 2 40 4 28 2 -13 2 -35 0 -50z m30 0
c-2 -16 -4 -5 -4 22 0 28 2 40 4 28 2 -13 2 -35 0 -50z m40 5 c-2 -13 -4 -3
-4 22 0 25 2 35 4 23 2 -13 2 -33 0 -45z m70 15 c-3 -10 -5 -2 -5 17 0 19 2
27 5 18 2 -10 2 -26 0 -35z m343 -23 c0 -14 -30 -18 -173 -23 -93 -4 -127 -2
-124 7 6 18 297 34 297 16z m1540 -55 c381 -7 485 -17 556 -49 70 -32 132 -91
160 -151 31 -66 30 -75 -6 -75 -28 0 -30 -2 -20 -21 16 -30 28 -315 14 -334
-15 -20 -31 -19 -38 3 -4 10 -5 88 -4 173 2 149 1 156 -26 215 -33 74 -73 115
-141 146 -48 21 -66 22 -460 31 -397 8 -411 9 -432 29 -38 36 -30 51 25 44 26
-3 193 -8 372 -11z m-1983 -11 c-3 -3 -12 -4 -19 -1 -8 3 -5 6 6 6 11 1 17 -2
13 -5z m2895 -264 c44 -12 58 -45 58 -129 l-1 -56 -28 61 c-30 64 -49 77 -121
86 -17 2 -26 10 -28 26 -3 20 1 22 40 22 24 0 59 -5 80 -10z m-285 -372 c-1
-68 -3 -13 -3 122 0 135 2 190 3 123 2 -68 2 -178 0 -245z m162 291 c31 -30
31 -32 31 -136 0 -92 -2 -104 -16 -99 -9 3 -27 6 -40 6 l-24 0 0 130 c0 73 4
130 9 130 5 0 23 -14 40 -31z m-3442 -299 c2 -63 12 -474 23 -912 l21 -797
-21 -38 c-18 -34 -19 -49 -13 -163 l6 -126 -69 6 c-136 13 -152 40 -170 283
-7 100 -14 201 -14 224 l0 41 58 -5 c82 -8 83 -4 80 163 l-3 139 -62 3 -63 3
0 34 c0 33 2 35 34 35 19 0 36 6 38 13 2 6 1 86 -2 177 -5 164 -5 165 -29 168
-12 2 -34 1 -47 -2 -24 -6 -24 -9 -24 -116 l0 -110 -25 0 c-25 0 -26 -1 -23
-62 3 -57 5 -63 26 -66 18 -3 22 -10 22 -38 0 -51 15 -74 50 -74 l30 0 0 -73
c0 -41 -2 -76 -5 -79 -13 -12 -91 12 -110 34 -18 21 -22 49 -35 244 -8 120
-15 265 -15 320 0 112 9 132 70 159 28 12 28 13 6 14 -14 1 -37 -13 -58 -34
l-36 -36 7 -217 c3 -119 9 -266 13 -327 6 -106 7 -111 37 -141 24 -23 44 -33
84 -38 77 -10 67 -29 -13 -24 -68 4 -101 21 -138 70 -26 35 -37 151 -40 438
-2 209 -1 227 18 259 32 54 66 74 142 80 53 5 68 10 71 23 3 14 -6 17 -45 20
l-48 3 -6 105 c-4 58 -7 200 -8 317 l-1 212 53 4 c28 2 93 3 142 3 l90 -1 2
-115z m3479 38 c4 -7 3 -8 -5 -4 -6 4 -23 -5 -40 -21 -38 -39 -51 -103 -57
-293 -5 -151 0 -200 32 -275 8 -19 7 -19 -16 -4 -60 39 -94 219 -71 368 15 97
38 146 92 199 47 45 54 48 65 30z m33 -63 c88 -75 109 -355 35 -482 -24 -41
-65 -71 -91 -67 -7 1 -19 2 -25 3 -7 1 7 10 32 19 77 30 110 107 110 259 0 78
-21 186 -47 236 -11 22 -20 27 -48 27 -34 0 -47 13 -22 23 21 9 25 8 56 -18z
m-9 -40 c11 -13 6 -15 -34 -15 -43 0 -55 7 -39 23 12 13 60 7 73 -8z m18 -52
c3 -9 -12 -13 -52 -13 -44 0 -56 3 -56 16 0 12 10 14 52 12 30 -2 53 -8 56
-15z m-251 -440 c-1 -81 -3 -17 -3 142 0 160 2 226 3 148 2 -78 2 -208 0 -290z
m246 382 c-5 -22 -103 -16 -103 6 0 6 21 9 53 7 28 -2 51 -7 50 -13z m7 -51
c0 -12 -6 -15 -22 -10 -13 3 -38 6 -55 6 -18 0 -33 5 -33 10 0 6 25 10 55 10
44 0 55 -3 55 -16z m0 -93 c0 -67 -5 -71 -76 -71 -46 0 -56 13 -31 39 10 11
10 13 0 7 -10 -5 -13 4 -13 32 0 21 3 42 7 45 3 4 30 7 60 7 l53 0 0 -59z m0
-101 c0 -13 -12 -17 -72 -24 -43 -5 -48 -4 -48 14 0 18 7 20 60 20 35 0 60 -4
60 -10z m-20 -60 c0 -13 -34 -30 -63 -30 -32 0 -44 27 -14 33 42 8 77 7 77 -3z
m-156 -164 c-8 -27 -11 -29 -23 -21 -6 3 -11 25 -11 48 l1 42 20 -24 c13 -16
17 -31 13 -45z m53 -23 c-3 -10 -5 -2 -5 17 0 19 2 27 5 18 2 -10 2 -26 0 -35z
m-3851 -276 c1 -198 -1 -244 -6 -167 -13 183 -11 440 4 440 0 0 2 -123 2 -273z
m3900 189 c16 -12 20 -29 22 -103 2 -48 0 -104 -5 -123 -9 -35 -10 -35 -71
-38 -56 -3 -62 -1 -77 22 -21 32 -18 213 4 239 17 21 99 23 127 3z m-3636
-146 c0 -64 -3 -80 -15 -80 -12 0 -15 16 -15 80 0 64 3 80 15 80 12 0 15 -16
15 -80z m3440 -625 c-21 -755 -22 -772 -47 -796 l-21 -22 13 44 c12 40 54 891
57 1159 0 52 3 84 6 70 2 -14 -1 -218 -8 -455z m150 388 c0 -43 -3 -169 -7
-280 l-6 -203 -34 -6 c-66 -13 -67 -12 -59 286 4 146 9 267 11 269 2 2 11 1
19 -2 13 -5 14 -38 9 -238 -6 -224 -6 -231 13 -227 17 3 20 16 25 163 4 88 7
195 8 238 0 44 5 77 11 77 6 0 10 -32 10 -77z m-3843 -140 c-3 -10 -5 -2 -5
17 0 19 2 27 5 18 2 -10 2 -26 0 -35z m3851 -385 c6 -8 8 -60 4 -135 l-5 -123
-35 0 -35 0 8 53 c15 97 14 102 -20 102 -22 0 -29 -4 -25 -15 7 -24 2 -103 -9
-130 -7 -19 -10 9 -10 112 l-1 137 53 4 c28 2 55 4 58 5 4 1 11 -4 17 -10z
m22 -426 c0 -206 -10 -220 -163 -247 l-38 -6 16 25 c13 19 18 60 22 175 l6
149 71 9 c39 5 74 7 79 5 4 -2 7 -51 7 -110z m-3002 -249 c-10 -2 -26 -2 -35
0 -10 3 -2 5 17 5 19 0 27 -2 18 -5z"/>
<path d="M2645 3968 c-143 -5 -271 -12 -285 -16 -24 -7 -25 -11 -25 -82 l0
-75 255 4 c140 2 278 7 305 10 l50 6 3 70 c2 57 0 72 -14 82 -10 7 -20 12 -23
11 -3 -1 -123 -5 -266 -10z"/>
<path d="M3162 3748 c-17 -17 -15 -53 3 -68 12 -10 21 -10 40 -2 40 19 29 82
-15 82 -9 0 -21 -5 -28 -12z m48 -28 c0 -5 -5 -12 -11 -16 -14 -8 -33 11 -25
25 7 11 36 4 36 -9z"/>
<path d="M2065 3640 l-160 -5 -75 -47 c-110 -69 -116 -74 -133 -110 -8 -18
-20 -75 -26 -126 -8 -78 -15 -101 -46 -150 -19 -32 -35 -63 -35 -69 0 -12 88
-43 122 -43 28 0 31 -23 8 -62 -52 -89 -100 -289 -100 -422 l0 -71 -51 58
c-28 32 -70 67 -92 79 -59 29 -145 35 -204 13 -77 -29 -110 -61 -151 -143 -34
-70 -37 -83 -37 -162 1 -78 3 -91 35 -149 37 -70 105 -131 166 -151 20 -7 68
-10 109 -8 62 3 80 8 117 33 23 17 56 50 73 74 26 37 30 51 28 104 0 34 -8 82
-17 107 l-16 45 4 -60 c4 -57 3 -59 -10 -30 -15 34 -19 109 -5 100 10 -6 3 26
-18 78 -6 16 -11 31 -11 33 0 3 27 -22 59 -55 52 -53 60 -66 66 -113 25 -184
158 -442 297 -574 149 -143 293 -206 463 -202 l70 1 -90 7 c-114 8 -176 29
-267 90 -82 54 -202 166 -192 181 3 5 0 8 -8 7 -7 -2 -12 5 -12 14 1 10 -3 16
-9 15 -14 -3 -100 142 -155 258 -25 53 -57 149 -78 235 -34 135 -36 152 -31
250 3 60 15 137 27 180 25 88 97 240 114 240 6 0 32 21 56 46 73 76 180 157
266 201 252 132 588 142 819 26 197 -99 359 -247 471 -430 48 -78 33 -27 -19
65 -113 201 -341 380 -577 454 -66 20 -95 23 -240 23 -161 0 -167 -1 -260 -33
-167 -58 -279 -127 -435 -268 l-80 -72 -79 18 c-43 11 -81 21 -83 24 -3 3 9
26 26 52 17 26 31 50 31 53 0 3 7 50 14 104 10 66 20 105 33 119 10 11 55 45
101 75 l84 55 136 15 c75 7 166 18 202 22 60 8 61 8 15 8 -27 -1 -122 -3 -210
-7z m-659 -995 c29 -8 62 -28 79 -46 l30 -31 -53 33 c-41 25 -68 34 -115 38
-47 3 -56 6 -37 12 37 11 42 10 96 -6z m36 -81 c57 -40 82 -93 86 -179 4 -83
-14 -119 -79 -162 -83 -55 -180 -28 -220 61 -67 147 55 301 179 226 93 -57 72
-220 -28 -220 -45 0 -92 47 -93 92 -1 41 26 88 51 88 15 -1 15 -2 1 -10 -29
-17 -43 -66 -29 -100 23 -56 84 -67 127 -24 22 22 25 32 20 72 -9 86 -96 129
-176 87 -84 -43 -76 -211 12 -266 39 -25 106 -21 146 8 33 24 71 98 71 138 0
76 -47 158 -111 191 -36 18 -112 18 -147 0 -63 -33 -102 -102 -102 -181 0 -70
20 -118 67 -162 21 -20 29 -31 18 -25 -27 14 -59 50 -80 91 -13 25 -16 52 -13
107 3 61 8 79 33 115 65 92 180 115 267 53z m-207 -392 c11 -6 15 -12 9 -12
-18 0 -76 43 -92 70 -12 20 -7 17 24 -11 21 -20 48 -41 59 -47z m240 18 c-17
-27 -87 -51 -138 -47 l-52 3 55 2 c37 2 68 10 95 26 48 29 48 29 40 16z"/>
<path d="M3948 3634 c-55 -29 -76 -125 -42 -184 54 -90 186 -72 214 29 30 109
-78 207 -172 155z"/>
<path d="M2585 3620 c-118 -18 -296 -80 -391 -135 -52 -30 -58 -41 -11 -21 17
8 50 22 72 31 142 61 298 89 506 88 147 0 159 -1 214 -27 97 -44 225 -135 311
-221 152 -152 226 -292 290 -550 35 -139 44 -365 20 -485 -65 -322 -246 -576
-538 -756 -40 -24 -67 -44 -62 -44 15 0 180 105 234 148 174 142 309 350 368
571 22 85 25 116 26 266 0 99 -5 196 -12 233 -39 194 -112 379 -196 496 -82
115 -232 243 -381 323 -43 23 -54 33 -37 33 84 1 568 -62 629 -81 41 -13 99
-77 112 -126 8 -27 8 -140 0 -388 -6 -192 -8 -399 -5 -460 4 -60 9 -193 12
-294 l5 -184 -26 -38 c-14 -22 -41 -45 -60 -53 -42 -18 -52 -39 -38 -76 10
-27 5 -33 -116 -152 -173 -171 -263 -238 -418 -317 -189 -95 -323 -126 -498
-118 -176 8 -335 60 -506 164 -72 43 -80 52 -85 85 -6 34 -19 59 -60 116 -13
18 -5 15 37 -14 118 -79 344 -176 465 -200 42 -7 132 -14 201 -14 113 0 124 2
121 18 -3 15 -20 18 -123 23 -131 7 -224 26 -319 64 -33 13 -91 33 -127 45
-126 38 -265 148 -379 299 -44 57 -124 207 -172 321 l-15 35 -16 -32 c-9 -17
-42 -61 -72 -97 -46 -54 -55 -71 -55 -103 0 -63 55 -309 99 -444 46 -142 82
-198 157 -248 63 -41 95 -49 249 -56 72 -3 227 -13 345 -23 326 -25 574 -20
960 17 179 17 405 34 502 38 155 5 180 4 202 -11 18 -11 26 -25 26 -45 0 -55
-14 -58 -265 -70 -212 -10 -385 -27 -385 -38 0 -12 607 25 635 40 30 15 35 27
35 83 0 36 -6 59 -19 75 -19 23 -23 24 -155 22 l-136 -2 16 31 c13 26 17 83
23 317 l6 286 29 3 28 4 -7 -235 c-8 -252 -4 -286 39 -326 48 -45 137 -33 168
22 9 16 14 90 16 257 2 129 1 232 -2 229 -3 -3 -9 -107 -14 -232 -8 -201 -12
-230 -28 -248 -45 -50 -111 -43 -141 15 -14 26 -15 70 -12 321 l4 290 -32 -1
-33 -2 0 155 0 155 83 -6 c48 -4 88 -2 97 3 12 8 16 47 21 203 7 236 11 228
-106 228 l-82 0 -6 83 c-4 45 -7 172 -7 283 0 195 -1 201 -26 252 -30 60 -83
108 -135 122 -62 17 -324 49 -564 70 -234 20 -400 24 -490 10z m1182 -913 c-2
-23 -3 -1 -3 48 0 50 1 68 3 42 2 -26 2 -67 0 -90z m211 36 c-3 -15 -16 -19
-77 -21 -71 -3 -90 4 -91 31 0 4 39 7 86 7 76 0 85 -2 82 -17z m-8 -68 c0 -17
-30 -19 -106 -7 l-49 7 65 6 c36 3 71 6 78 7 6 1 12 -5 12 -13z m-172 -163
c-4 -107 -22 -112 -26 -8 -3 86 2 116 19 99 5 -5 9 -46 7 -91z m139 81 c-20
-2 -52 -2 -70 0 -17 2 0 4 38 4 39 0 53 -2 32 -4z m33 -53 c0 -6 -29 -10 -66
-10 -41 0 -63 4 -59 10 3 6 33 10 66 10 33 0 59 -4 59 -10z m-32 -127 c-21 -2
-55 -2 -75 0 -21 2 -4 4 37 4 41 0 58 -2 38 -4z m-2282 -330 c41 -94 108 -202
182 -295 l70 -86 -57 -4 c-39 -3 -68 -12 -90 -27 -27 -20 -35 -21 -42 -10 -39
59 -79 128 -79 137 0 6 9 13 19 17 27 8 32 29 15 54 -18 26 -50 27 -63 3 -12
-22 20 -106 70 -183 23 -36 29 -54 21 -57 -7 -2 -27 -16 -43 -30 -28 -23 -31
-30 -26 -66 l5 -41 -20 45 c-28 62 -94 330 -103 413 l-8 69 59 59 c32 32 60
59 61 59 2 0 15 -26 29 -57z m2082 -456 c-4 -320 2 -302 -101 -312 -34 -3
-195 -19 -357 -36 -409 -42 -678 -48 -950 -21 -113 12 -266 24 -340 28 -152 8
-198 17 -134 27 57 9 105 45 134 99 l25 46 40 -24 c69 -43 187 -100 260 -127
83 -29 235 -57 315 -57 133 0 321 50 470 125 155 78 268 163 434 326 136 134
157 159 151 178 -5 17 0 30 22 53 l28 30 4 -29 c1 -15 1 -153 -1 -306z m-1807
-6 c31 -31 42 -64 14 -41 -23 19 -29 5 -11 -22 9 -13 18 -47 21 -74 3 -36 3
-41 -3 -19 -25 89 -65 112 -140 78 -20 -9 -42 -15 -48 -15 -5 1 -18 -21 -28
-48 -20 -54 -13 -93 22 -134 l17 -21 -24 20 c-40 34 -71 98 -77 162 -7 60 -6
60 27 80 122 74 181 83 230 34z m-39 -108 c10 -9 18 -27 18 -40 0 -22 -31 -63
-48 -63 -17 0 -44 39 -39 55 10 25 30 18 23 -9 -3 -14 -1 -28 5 -32 18 -11 40
27 37 61 -2 24 -9 31 -33 36 -26 6 -27 7 -6 8 14 0 33 -6 43 -16z m-100 -52
c-3 -32 1 -45 22 -65 34 -35 70 -33 107 3 16 16 29 25 29 20 0 -6 -12 -21 -26
-34 -73 -68 -200 -1 -165 87 6 13 10 17 11 8 0 -12 3 -11 11 3 14 24 15 22 11
-22z"/>
<path d="M1155 3444 c-15 -15 -15 -40 -9 -248 5 -192 9 -234 23 -250 14 -16
28 -18 113 -14 54 2 102 8 108 14 7 7 9 98 8 260 l-3 249 -111 3 c-94 2 -115
0 -129 -14z m218 -186 c4 -79 7 -167 7 -195 l0 -53 -33 0 -34 0 -6 143 c-4 78
-7 166 -7 195 l0 52 33 0 34 0 6 -142z"/>
<path d="M1761 3414 c-17 -14 -31 -30 -31 -34 0 -5 12 2 26 15 14 13 39 27 54
30 60 13 131 -47 130 -112 -1 -26 -2 -25 -15 12 -21 58 -50 78 -103 72 -24 -3
-49 -10 -55 -17 -9 -10 -9 -11 3 -5 9 5 12 4 7 -1 -5 -5 -12 -9 -15 -9 -21 -1
-32 -21 -32 -60 0 -33 6 -50 28 -73 26 -27 32 -30 78 -25 50 6 94 34 94 60 0
8 5 11 10 8 16 -10 12 62 -5 95 -37 72 -117 92 -174 44z m92 -85 c12 -10 16
-19 9 -23 -5 -3 -20 2 -33 12 -16 14 -20 24 -15 38 7 15 9 16 13 4 3 -8 14
-22 26 -31z m37 10 c0 -6 -7 -6 -20 1 -11 6 -20 15 -20 21 0 6 7 6 20 -1 11
-6 20 -15 20 -21z m-97 -108 c13 -14 16 -22 8 -19 -21 6 -49 48 -56 83 -6 29
-5 29 10 -5 9 -19 26 -46 38 -59z m22 69 c3 -5 3 -15 -1 -21 -6 -11 -23 6 -24
24 0 10 18 9 25 -3z"/>
<path d="M3397 3412 c-23 -26 -22 -87 2 -111 27 -27 92 -44 124 -32 29 11 57
47 57 73 0 33 -46 73 -87 75 -21 1 -47 4 -58 8 -14 4 -27 0 -38 -13z m53 -6
c0 -2 -7 -6 -15 -10 -8 -3 -15 -1 -15 4 0 6 7 10 15 10 8 0 15 -2 15 -4z m90
-36 c24 -24 24 -29 4 -58 -23 -33 -65 -26 -79 12 -8 24 -6 31 14 47 29 24 36
24 61 -1z"/>
<path d="M2494 3348 c1 -22 -4 -23 -94 -29 -185 -11 -310 -67 -442 -199 -72
-73 -93 -102 -131 -181 -53 -109 -96 -289 -69 -289 4 0 17 39 29 88 43 164
135 318 247 411 120 98 233 135 409 133 81 -1 132 3 160 13 72 25 133 19 211
-20 92 -48 166 -106 263 -209 64 -67 91 -106 132 -188 77 -155 103 -269 104
-448 1 -175 -14 -245 -79 -370 -106 -205 -312 -382 -524 -449 -36 -11 -119
-27 -185 -36 -203 -27 -207 -33 -20 -34 143 -1 182 2 243 19 147 41 247 99
408 236 l76 64 28 -20 c15 -11 33 -20 39 -20 14 0 111 139 111 159 0 9 -9 29
-19 45 -19 28 -19 29 9 105 45 122 60 215 60 364 0 262 -69 429 -255 612 -182
179 -380 265 -614 265 -95 0 -98 -1 -97 -22z m466 -104 c0 -2 -9 0 -20 6 -11
6 -20 13 -20 16 0 2 9 0 20 -6 11 -6 20 -13 20 -16z m191 -144 c82 -82 102
-108 142 -190 58 -118 87 -225 94 -355 3 -55 3 -98 0 -95 -2 3 -10 44 -16 92
-18 132 -47 233 -101 343 -57 117 -133 214 -222 280 -84 64 -91 72 -38 44 25
-13 88 -67 141 -119z m169 -1065 c10 -12 9 -20 -5 -42 -26 -40 -240 -253 -255
-253 -6 0 18 34 55 76 36 41 77 93 90 115 14 21 36 57 50 79 27 42 45 49 65
25z"/>
<path d="M2436 3200 c-167 -33 -241 -62 -334 -134 -91 -70 -167 -184 -203
-304 -8 -27 -17 -41 -25 -38 -16 6 -37 -84 -32 -134 3 -28 6 -20 18 45 l15 80
6 -160 c7 -180 30 -272 92 -376 31 -52 32 -57 18 -78 -13 -21 -13 -26 4 -58
31 -56 135 -139 135 -107 0 3 -23 26 -50 51 -57 51 -73 75 -64 97 10 25 21 20
95 -46 140 -127 260 -179 410 -180 164 -1 278 51 414 187 102 101 142 170 175
301 23 88 27 234 9 330 -27 148 -120 319 -225 412 -32 29 -92 69 -132 89 -91
45 -177 51 -326 23z m257 -20 c82 -26 170 -84 241 -161 77 -82 93 -118 20 -43
-68 70 -152 123 -244 155 -85 29 -220 32 -304 6 -66 -21 -71 -35 -5 -16 69 19
213 14 289 -10 113 -36 241 -126 276 -193 9 -16 18 -27 21 -24 9 9 42 -38 67
-96 37 -86 51 -156 51 -268 -1 -112 -23 -207 -70 -300 -97 -191 -320 -300
-528 -257 -171 35 -336 160 -397 301 -75 176 -77 395 -6 546 29 61 99 147 149
182 24 16 19 8 -21 -35 -63 -68 -116 -174 -138 -277 -19 -90 -14 -267 10 -345
9 -27 14 -36 11 -20 -35 204 5 448 96 584 50 74 141 145 217 167 30 9 92 17
136 17 75 0 78 1 36 9 -56 11 -187 3 -260 -17 -122 -32 -256 -158 -330 -310
-56 -114 -74 -210 -68 -365 l5 -125 -19 75 c-21 81 -28 240 -15 330 5 38 4 50
-3 40 -7 -11 -10 -12 -10 -2 0 8 21 53 47 100 36 65 71 110 138 177 105 105
177 145 300 169 44 8 89 17 100 19 53 12 148 5 208 -13z m-658 -592 c1 -135 6
-176 40 -273 4 -14 1 -12 -9 5 -50 80 -70 243 -45 360 6 27 11 50 12 50 1 0 2
-64 2 -142z m85 -433 c76 -111 191 -195 314 -230 45 -13 83 -16 160 -12 55 3
112 8 126 11 21 5 20 4 -5 -8 -16 -8 -60 -20 -97 -26 -166 -29 -350 52 -477
207 -44 54 -121 196 -121 223 0 8 15 -14 33 -50 18 -36 48 -87 67 -115z"/>
<path d="M2658 3083 c7 -3 16 -2 19 1 4 3 -2 6 -13 5 -11 0 -14 -3 -6 -6z"/>
<path d="M2440 3044 c-100 -36 -165 -99 -230 -225 -50 -96 -70 -173 -70 -269
0 -107 21 -190 75 -302 51 -107 104 -165 183 -201 40 -19 65 -22 162 -22 107
0 119 2 169 29 66 34 161 122 161 148 0 24 26 34 45 18 9 -8 13 -21 9 -36 -9
-36 17 -30 43 9 60 88 93 218 92 360 -1 114 -17 165 -19 62 l-2 -70 -9 50
c-21 125 -108 288 -192 360 -23 20 -71 50 -107 68 -57 27 -77 31 -165 34 -74
2 -112 -1 -145 -13z m-25 -53 c-65 -38 -126 -102 -164 -171 -17 -30 -31 -50
-31 -45 0 6 13 33 29 60 35 61 111 139 160 165 57 30 61 23 6 -9z m13 -129 c7
-9 17 -22 20 -29 6 -9 16 -9 47 2 84 30 170 15 231 -40 l39 -35 -39 25 c-44
28 -96 45 -142 45 -51 0 -133 -31 -140 -52 -9 -29 -79 -71 -104 -63 -25 8 -60
61 -60 90 1 66 109 108 148 57z m116 -145 c15 -11 16 -18 8 -33 -10 -19 -8
-20 19 -16 38 6 79 -30 79 -68 0 -37 -42 -74 -85 -74 -34 0 -75 27 -75 49 0 7
-7 18 -15 25 -12 10 -15 7 -21 -14 -16 -66 21 -136 90 -167 38 -17 39 -19 14
-19 -66 0 -142 112 -118 175 5 14 7 44 4 66 -7 42 5 65 41 79 29 12 39 12 59
-3z m353 -154 c-3 -10 -5 -4 -5 12 0 17 2 24 5 18 2 -7 2 -21 0 -30z m-168
-24 c13 -24 13 -29 -2 -53 -19 -28 -54 -35 -75 -14 -20 20 -14 65 11 83 29 20
48 16 66 -16z m178 -56 c-3 -10 -5 -4 -5 12 0 17 2 24 5 18 2 -7 2 -21 0 -30z
m-22 -121 c-44 -153 -128 -219 -291 -229 -165 -11 -312 66 -379 197 -35 69
-31 72 13 10 45 -65 117 -122 192 -152 42 -16 77 -22 145 -22 78 0 98 3 153
28 94 43 150 118 169 226 5 30 9 37 11 22 2 -12 -4 -48 -13 -80z m-576 28 c11
-24 11 -24 -3 -6 -9 11 -16 24 -16 30 0 12 5 7 19 -24z m424 -100 c-42 -38
-131 -64 -194 -57 -46 6 -122 37 -133 55 -3 5 16 -2 41 -15 65 -32 168 -32
239 1 28 13 55 29 58 35 4 6 10 11 14 11 4 0 -8 -14 -25 -30z m47 -125 c0 -14
-128 -65 -160 -64 -33 1 -32 2 15 14 28 6 70 21 95 33 54 25 50 23 50 17z"/>
<path d="M3580 3034 c-11 -12 -11 -18 2 -30 8 -8 22 -12 31 -8 21 8 22 40 1
48 -21 8 -20 8 -34 -10z"/>
<path d="M3600 2965 c-17 -20 -4 -62 21 -70 15 -5 28 -1 42 14 18 17 19 24 9
46 -13 29 -52 34 -72 10z"/>
<path d="M3136 2875 c63 -187 78 -275 72 -437 -6 -142 -33 -240 -95 -348 -49
-83 -189 -224 -273 -273 -105 -61 -154 -72 -320 -72 -126 0 -154 3 -210 23
-158 57 -280 164 -369 327 -91 166 -125 305 -117 475 2 47 2 68 -1 48 -3 -26
-9 -38 -20 -38 -23 0 -12 -209 17 -310 55 -193 227 -436 380 -538 196 -130
444 -116 671 39 268 184 399 457 368 766 -11 108 -48 244 -85 311 -14 26 -22
38 -18 27z m-731 -1169 l50 -16 -50 5 c-43 5 -195 65 -195 78 0 3 33 -8 73
-24 39 -15 95 -35 122 -43z"/>
<path d="M1532 2848 c-18 -18 -15 -36 9 -48 26 -14 51 4 47 34 -3 24 -37 33
-56 14z"/>
<path d="M1303 2729 c-18 -5 -35 -14 -38 -19 -4 -6 3 -6 20 0 38 14 150 12
189 -4 18 -7 50 -28 72 -46 34 -29 33 -27 -7 13 -63 62 -146 82 -236 56z"/>
<path d="M1745 2470 c3 -136 22 -240 59 -320 9 -19 14 -26 10 -15 -35 116 -56
229 -64 340 l-8 130 3 -135z"/>
<path d="M2930 1480 c-8 -5 -10 -10 -5 -10 6 0 17 5 25 10 8 5 11 10 5 10 -5
0 -17 -5 -25 -10z"/>
<path d="M1138 1405 c-81 -45 -74 -171 10 -211 63 -30 127 1 153 74 32 92 -78
185 -163 137z m83 -65 c35 -19 20 -90 -20 -90 -20 0 -51 30 -51 48 0 17 28 52
42 52 5 0 18 -5 29 -10z"/>
<path d="M1182 1321 c-20 -12 -10 -46 14 -49 25 -4 40 24 23 44 -13 16 -19 17
-37 5z"/>
<path d="M2990 920 c0 -5 25 -10 55 -10 30 0 55 5 55 10 0 6 -25 10 -55 10
-30 0 -55 -4 -55 -10z"/>
<path d="M3140 920 c0 -5 18 -10 40 -10 22 0 40 5 40 10 0 6 -18 10 -40 10
-22 0 -40 -4 -40 -10z"/>
<path d="M4360 2490 c-6 -11 -10 -51 -8 -88 3 -59 5 -67 23 -67 18 0 21 9 26
70 8 91 -14 136 -41 85z"/>
</g>
</svg>
